<?xml version="1.0" encoding="utf-8"?>
<svg viewBox="0 0 118 92" xmlns="http://www.w3.org/2000/svg" xmlns:bx="https://boxy-svg.com">
  <defs>
    <filter id="inner-shadow-filter-0" x="-500%" y="-500%" width="1000%" height="1000%" bx:preset="inner-shadow 1 0 0 10 0.5 rgba(0,0,0,0.7)">
      <feOffset dx="0" dy="0"/>
      <feGaussianBlur stdDeviation="10"/>
      <feComposite operator="out" in="SourceGraphic"/>
      <feComponentTransfer result="choke">
        <feFuncA type="linear" slope="1"/>
      </feComponentTransfer>
      <feFlood flood-color="rgba(0,0,0,0.7)" result="color"/>
      <feComposite operator="in" in="color" in2="choke" result="shadow"/>
      <feComposite operator="over" in="shadow" in2="SourceGraphic"/>
    </filter>
  </defs>
  <g transform="matrix(1, 0, 0, 1, -216.334152, -137.157104)">
    <path style="fill: rgb(59, 99, 142);" transform="matrix(0, 0.54002, -0.405438, 0, 421.37851, 54.534237)" d="M 326 348 A 66.008 66.008 0 1 1 325 215.992 L 325 282 Z" bx:shape="pie 325 282 0 66.008 179.132 360 1@7293c569"/>
    <circle style="fill: rgb(59, 99, 142);" cx="305.965" cy="177.019" r="15.272"/>
    <path style="fill: rgb(59, 99, 142);" transform="matrix(0, 0.54002, -0.405438, 0, 357.475647, 55.377827)" d="M 326 348 A 66.008 66.008 0 1 1 325 215.992 L 325 282 Z" bx:shape="pie 325 282 0 66.008 179.132 360 1@7293c569"/>
    <circle style="fill: rgb(59, 99, 142);" cx="242.062" cy="177.862" r="15.272"/>
    <g style="filter: url(#inner-shadow-filter-0);" transform="matrix(1.344171, 0, 0, 1.353228, -95.604408, -79.214684)">
      <g>
        <path style="fill: rgb(59, 99, 142);" transform="matrix(0, 0.54002, -0.405438, 0, 389.894623, 53.185108)" d="M 326 348 A 66.008 66.008 0 1 1 325 215.992 L 325 282 Z" bx:shape="pie 325 282 0 66.008 179.132 360 1@7293c569"/>
        <circle style="fill: rgb(59, 99, 142);" cx="274.481" cy="175.788" r="15.272"/>
        <g transform="matrix(0.743953, 0, 0, 0.738974, 90.455788, 104.239159)">
          <g>
            <line style="fill: rgb(132, 92, 92); stroke-width: 3px; stroke: rgb(213, 254, 255);" x1="248.487" y1="133.224" x2="248.487" y2="153.311"/>
            <line style="fill: rgb(132, 92, 92); stroke-width: 3px; stroke: rgb(213, 254, 255);" x1="248.954" y1="132.99" x2="248.954" y2="153.077" transform="matrix(0, 1, -1, 0, 391.987495, -105.920494)"/>
          </g>
        </g>
      </g>
    </g>
  </g>
</svg>